<?xml version="1.0" encoding="UTF-8"?>
<!-- Generated by Pixelmator Pro 3.5.7 -->
<svg width="825" height="1036" viewBox="0 0 825 1036" xmlns="http://www.w3.org/2000/svg">
    <g id="noun-mindset-4592956">
        <path id="Pfad" fill="#f25f3a" stroke="none" d="M 825 377.292969 C 825 273.084412 783.565186 176.126831 708.153748 104.237366 C 632.742371 32.3479 533.713074 -4.529053 429.504456 0.442993 C 228.131134 9.973145 70.471535 179.856018 70.471535 387.44458 L 70.471535 422.042725 L 1.068164 595.44751 C -1.417924 601.869873 -0.589228 609.120972 3.139914 614.7146 C 7.076215 620.30835 13.498625 623.830322 20.335373 623.830322 L 99.268761 623.830322 L 99.268761 837.841309 C 99.268761 849.235901 108.591591 858.558716 119.986183 858.558716 L 336.483246 858.558716 L 410.651611 1023.469421 C 414.173553 1031.134888 421.631836 1035.692749 429.504456 1035.692749 C 432.404877 1035.692749 435.305359 1035.071167 437.998596 1033.828125 C 448.3573 1029.06311 453.122314 1016.839844 448.3573 1006.48114 L 368.802399 829.347168 C 365.48761 821.888855 358.029327 817.12384 349.949554 817.12384 L 140.703583 817.12384 L 140.703583 603.320068 C 140.703583 591.925537 131.380768 582.602661 119.986183 582.602661 L 50.997166 582.602661 L 110.456169 433.851624 C 111.49202 431.365479 111.90638 428.879395 111.90638 426.186096 L 111.90638 387.44458 C 111.90638 202.023621 252.370514 50.372131 431.576202 41.877869 C 524.597412 37.527222 612.646423 70.260803 679.563782 134.277649 C 746.688171 198.294495 783.565186 284.686096 783.565186 377.292969 C 783.565186 462.648804 743.16626 543.861084 709.189697 596.897705 C 659.26062 674.588013 653.666992 772.167114 694.065918 857.937195 L 752.489014 982.034607 C 757.461243 992.393311 769.684509 996.743958 780.043213 991.978943 C 790.401917 987.213928 794.752563 974.783447 789.98761 964.424744 L 731.564453 840.327393 C 697.795044 768.645081 702.767273 684.118042 744.202087 619.272461 C 797.860229 535.366943 825 453.947449 825 377.292969 Z"/>
        <path id="path1" fill="#f15f3a" stroke="none" d="M 665.890259 215.48999 C 615.339722 188.764465 554.223328 190.836182 505.951752 221.083618 C 460.373413 249.466553 432.612061 299.395508 431.161835 353.05365 C 421.217499 342.073425 410.03006 332.336243 397.185272 324.25647 C 348.913696 294.216187 287.590118 291.937256 237.246765 318.662659 C 230.617203 322.184631 226.47374 328.814331 226.266556 336.272522 C 224.401993 393.245422 253.199188 447.525024 301.263611 477.565308 C 326.953186 493.724976 356.371948 501.804749 385.997864 501.804749 C 401.121582 501.804749 416.038147 499.525818 430.747498 495.175171 L 430.747498 591.925537 C 430.747498 603.320068 440.070343 612.642944 451.464905 612.642944 C 462.859467 612.642944 472.182343 603.320068 472.182343 591.925537 L 472.182343 392.002319 C 486.891693 396.145935 501.808258 398.631897 516.931946 398.631897 C 546.557861 398.631897 575.976685 390.552124 601.666199 374.392578 C 649.937866 344.145142 678.735046 290.072693 676.663269 233.099731 C 676.663269 225.641479 672.519836 219.011902 665.890259 215.48999 Z M 323.431244 442.345703 C 291.112061 422.249756 270.80899 387.651733 268.115753 349.945984 C 303.128174 335.858154 343.319977 339.173035 375.431976 359.26886 C 407.75119 379.364685 428.05423 413.96283 430.747498 451.668518 C 395.735077 465.756409 355.543274 462.441589 323.431244 442.345703 Z M 579.912964 339.173035 C 547.800964 359.26886 507.6091 362.583618 472.59668 348.495789 C 475.289978 310.7901 495.800171 276.192017 527.912231 256.09613 C 560.024231 236.000183 600.216003 232.685425 635.228394 246.773254 C 632.742371 284.478943 612.232178 319.077087 579.912964 339.173035 Z"/>
    </g>
</svg>
