<svg xmlns="http://www.w3.org/2000/svg" xmlns:xlink="http://www.w3.org/1999/xlink" version="1.1" x="0px" y="0px" viewBox="0 0 60 75" style="enable-background:new 0 0 60 60;" xml:space="preserve"><path d="M49.92,23.21c0-5.03-2-9.71-5.64-13.18c-3.64-3.47-8.42-5.25-13.45-5.01C21.11,5.48,13.5,13.68,13.5,23.7v1.67l-3.35,8.37  c-0.12,0.31-0.08,0.66,0.1,0.93c0.19,0.27,0.5,0.44,0.83,0.44h3.81v10.33c0,0.55,0.45,1,1,1h10.45l3.58,7.96  c0.17,0.37,0.53,0.59,0.91,0.59c0.14,0,0.28-0.03,0.41-0.09c0.5-0.23,0.73-0.82,0.5-1.32l-3.84-8.55c-0.16-0.36-0.52-0.59-0.91-0.59  h-10.1V34.12c0-0.55-0.45-1-1-1h-3.33l2.87-7.18c0.05-0.12,0.07-0.24,0.07-0.37V23.7c0-8.95,6.78-16.27,15.43-16.68  c4.49-0.21,8.74,1.37,11.97,4.46c3.24,3.09,5.02,7.26,5.02,11.73c0,4.12-1.95,8.04-3.59,10.6c-2.41,3.75-2.68,8.46-0.73,12.6  l2.82,5.99c0.24,0.5,0.83,0.71,1.33,0.48c0.5-0.23,0.71-0.83,0.48-1.33l-2.82-5.99c-1.63-3.46-1.39-7.54,0.61-10.67  C48.61,30.84,49.92,26.91,49.92,23.21z"/><path d="M42.24,15.4c-2.44-1.29-5.39-1.19-7.72,0.27c-2.2,1.37-3.54,3.78-3.61,6.37c-0.48-0.53-1.02-1-1.64-1.39  c-2.33-1.45-5.29-1.56-7.72-0.27c-0.32,0.17-0.52,0.49-0.53,0.85c-0.09,2.75,1.3,5.37,3.62,6.82c1.24,0.78,2.66,1.17,4.09,1.17  c0.73,0,1.45-0.11,2.16-0.32v4.67c0,0.55,0.45,1,1,1s1-0.45,1-1v-9.65c0.71,0.2,1.43,0.32,2.16,0.32c1.43,0,2.85-0.39,4.09-1.17  c2.33-1.46,3.72-4.07,3.62-6.82C42.76,15.89,42.56,15.57,42.24,15.4z M25.71,26.35c-1.56-0.97-2.54-2.64-2.67-4.46  c1.69-0.68,3.63-0.52,5.18,0.45c1.56,0.97,2.54,2.64,2.67,4.46C29.2,27.48,27.26,27.32,25.71,26.35z M38.09,21.37  c-1.55,0.97-3.49,1.13-5.18,0.45c0.13-1.82,1.12-3.49,2.67-4.46c1.55-0.97,3.49-1.13,5.18-0.45C40.64,18.73,39.65,20.4,38.09,21.37z  "/><text x="0" y="75" fill="#000000" font-size="5px" font-weight="bold" font-family="'Helvetica Neue', Helvetica, Arial-Unicode, Arial, Sans-serif">Created by Vectorstall</text><text x="0" y="80" fill="#000000" font-size="5px" font-weight="bold" font-family="'Helvetica Neue', Helvetica, Arial-Unicode, Arial, Sans-serif">from the Noun Project</text></svg>