<?xml version="1.0" encoding="UTF-8"?>
<!-- Generated by Pixelmator Pro 3.5.7 -->
<svg width="1005" height="877" viewBox="0 0 1005 877" xmlns="http://www.w3.org/2000/svg">
    <g id="cycle">
        <g id="Gruppe">
            <path id="Pfad" fill="#f25f3a" stroke="none" d="M 1003.527039 767.926819 L 904.418274 657.855286 L 904.174072 723.676758 L 813.277771 723.339539 C 780.242126 756.911804 739.370544 790.454895 693.846863 810.659668 L 903.848511 811.43866 L 903.60437 877.26001 L 1003.527039 767.926819 Z"/>
            <path id="path1" fill="#f25f3a" stroke="none" d="M 867.433838 488.460693 C 868.096558 309.802612 723.667603 165.084534 545.009399 164.421753 C 443.926514 164.046814 354.425964 209.947205 294.605804 281.816406 C 294.605804 281.816406 294.605804 281.816406 294.605804 281.816406 C 274.136597 307.599304 256.79303 335.744507 244.931641 364.693665 C 244.139328 367.041534 243.34993 368.605774 242.557632 370.953644 C 240.973007 375.649353 239.391296 379.561493 237.806686 384.257202 C 226.71727 416.343597 221.104248 450.801178 220.970535 486.846222 C 220.822296 526.809265 228.515747 565.234131 241.703049 601.328613 L 181.270813 626.963196 L 325.238892 684.700012 L 382.192078 540.729004 L 324.113525 565.588745 C 314.803497 540.479065 310.200806 513.81958 310.299622 487.177582 C 310.776337 358.669128 416.163757 254.84137 544.672241 255.318054 C 673.180725 255.7948 777.792053 361.18512 777.315369 489.693634 C 776.838684 618.202087 671.448303 722.813416 542.939819 722.336731 L 0.696689 720.325256 L 42.853497 762.796021 L 0.371135 808.087219 L 542.614258 810.098633 C 720.488831 810.758484 866.771118 667.118896 867.433838 488.460693 Z"/>
            <path id="path2" fill="#f25f3a" stroke="none" d="M 216.800934 343.432129 C 219.145905 345.007996 221.490845 346.583923 223.052216 348.156921 C 234.907776 320.774902 250.675461 294.974609 269.571686 270.753174 C 267.226746 269.177307 265.665375 267.604248 263.320404 266.028381 C 249.265244 252.65509 239.931946 233.814087 240.010422 212.657166 C 240.158661 172.694214 273.191467 139.905457 313.154449 140.053711 C 319.423187 140.076965 325.688995 140.88385 331.168304 142.471375 L 302.749817 198.785156 L 364.731781 177.857849 L 450.250458 149.181946 L 447.922943 142.90448 L 400.647278 1.681274 L 371.436493 60.342834 C 352.656525 53.220825 333.08136 49.230225 313.491638 49.157532 C 223.378998 48.823303 150.23494 121.426697 149.900665 211.539307 C 150.483704 265.609802 176.948395 313.507507 216.800934 343.432129 Z"/>
        </g>
    </g>
</svg>
